<?xml version="1.0" encoding="utf-8"?>
<!-- Generator: Adobe Illustrator 22.0.1, SVG Export Plug-In . SVG Version: 6.00 Build 0)  -->
<svg version="1.1" id="Layer_1" xmlns="http://www.w3.org/2000/svg" xmlns:xlink="http://www.w3.org/1999/xlink" x="0px" y="0px"
	 viewBox="0 0 128 128" style="enable-background:new 0 0 128 128;" xml:space="preserve">
<style type="text/css">
	.st0{fill:#D291FF;}
	.st1{fill:#1F0040;}
</style>
<g id="XMLID_1_">
	<rect id="XMLID_3_" class="st0" width="128" height="128"/>
	<rect id="XMLID_5_" x="5.6" y="5.6" class="st1" width="116.7" height="116.7"/>
	<g id="XMLID_10_">
		<g>
			<path id="XMLID_49_" class="st0" d="M36,72.6l-4.6,15.8c-0.1,0.5-0.3,0.7-0.8,0.7h-7.7c-0.5,0-0.7-0.3-0.5-0.9
				c4.1-13.9,11-36.9,15.8-52.6c0.2-0.9,0.5-1.8,0.6-5c0-0.4,0.2-0.5,0.5-0.5h10.5c0.4,0,0.5,0.1,0.6,0.5
				c5.6,18.6,11.7,39,17.5,57.8c0.2,0.5,0,0.8-0.5,0.8h-8.5c-0.4,0-0.5-0.2-0.7-0.5l-4.8-15.9H36z M51.3,63.8
				c-1.5-6.1-5.2-18.3-6.7-24.6h-0.1c-1.1,6-4.2,16.2-6.5,24.6H51.3z"/>
		</g>
	</g>
	<g id="XMLID_6_">
		<g>
			<path id="XMLID_38_" class="st0" d="M79.5,69.2c0.2,6.8,3.8,11.6,11.6,11.6c2.9,0,6.3-0.5,9.7-2.2c0.2-0.1,0.5,0,0.5,0.4v7.1
				c0,0.6-0.2,0.8-0.5,1c-3,1.8-6.6,2.4-11.6,2.5c-14.1,0-19.2-11-19.2-22.3c0-12.7,6.6-22.8,18.1-22.8c11.4,0,15.9,10,15.9,18.3
				c0,3.8-0.4,5.6-0.7,5.9c-0.9,0.4-3.9,0.5-8.1,0.5H79.5z M91.8,62.4c2.9,0,3.3-0.4,3.4-0.7c0-0.2,0-0.6,0-1c0-2.7-1.5-8.5-7.5-8.5
				c-5,0-7.6,4.5-8.3,10.2H91.8z"/>
		</g>
	</g>
</g>
</svg>
