<?xml version="1.0" encoding="utf-8"?>
<!-- Generator: Adobe Illustrator 22.0.1, SVG Export Plug-In . SVG Version: 6.00 Build 0)  -->
<svg version="1.1" id="Layer_1" xmlns="http://www.w3.org/2000/svg" xmlns:xlink="http://www.w3.org/1999/xlink" x="0px" y="0px"
	 viewBox="0 0 128 128" style="enable-background:new 0 0 128 128;" xml:space="preserve">
<style type="text/css">
	.st0{fill:#F7A80D;}
</style>
<path class="st0" d="M37.6,77.8l-11.6,5l10.8,4.6l12.5-4.6C49.2,82.8,37.6,77.8,37.6,77.8z M20.1,84l-0.4,22.5l17,7.5V90.6
	C36.7,90.6,20.1,84,20.1,84z M55,84l-15.4,5.9v22l15.4-6.3C55,105.6,55,84,55,84z M73.4,14l-11.7,5l10.9,4.6L85,19L73.4,14z
	 M57.2,20.6v22.5l14.5,4.2l0.5-20.5C72.1,26.9,57.2,20.6,57.2,20.6z M89.6,21.9l-13.7,5.9v22.1l13.7-6.3
	C89.6,43.6,89.6,21.9,89.6,21.9z M18.4,45.7l-11.6,5l10.8,4.6L30,50.7C30,50.7,18.4,45.7,18.4,45.7z M0.9,51.9L0.5,74.4l17,7.5V58.6
	L0.9,51.9z M35.9,51.9l-15.4,5.9v22l15.4-6.2C35.9,73.6,35.9,51.9,35.9,51.9z M55.9,44.8l-11.6,5L55,54.4l12.5-4.6
	C67.5,49.8,55.9,44.8,55.9,44.8z M38.4,51.1L38,73.6l17,7.5V57.7L38.4,51.1z M73.4,51.1L58,56.9v22l15.4-6.3V51.1z M110,14l-11.6,5
	l10.8,4.6l12.5-4.6C121.6,19,110,14,110,14z M92.5,20.3l-0.4,22.5l17,7.5V26.9C109.2,26.9,92.5,20.3,92.5,20.3z M127.5,20.3
	l-15.4,5.9v22l15.4-6.2C127.5,41.9,127.5,20.3,127.5,20.3z"/>
</svg>
