<?xml version="1.0" encoding="utf-8"?>
<!-- Generator: Adobe Illustrator 22.0.1, SVG Export Plug-In . SVG Version: 6.00 Build 0)  -->
<svg version="1.1" id="Layer_1" xmlns="http://www.w3.org/2000/svg" xmlns:xlink="http://www.w3.org/1999/xlink" x="0px" y="0px"
	 viewBox="0 0 128 128" style="enable-background:new 0 0 128 128;" xml:space="preserve">
<style type="text/css">
	.st0{fill:#205081;}
</style>
<g>
	<path class="st0" d="M64,0.4L64,0.4C33.8,0.4,9,8.5,9,18.8c0,2.7,6.5,41.1,9.2,56.2C19.2,82,37,91.8,64,91.8l0,0
		c27,0,44.2-9.7,45.8-16.8c2.7-15.1,9.2-53.5,9.2-56.2C118.5,8.5,94.2,0.4,64,0.4L64,0.4z M64,79.3c-9.7,0-17.3-7.6-17.3-17.3
		S54.3,44.8,64,44.8c9.7,0,17.3,7.6,17.3,17.3C81.3,71.2,73.7,79.3,64,79.3L64,79.3z M64,24.2c-19.4,0-35-3.2-35-7.6
		s15.6-7.6,35-7.6s35,3.2,35,7.6S83.4,24.2,64,24.2L64,24.2z"/>
	<path class="st0" d="M103.8,89.6c-1.1,0-1.6,0.5-1.6,0.5S88.7,101,64.4,101S26.7,90.1,26.7,90.1s-1.1-0.5-1.6-0.5
		c-1.1,0-2.2,0.5-2.2,2.2v0.5c2.2,11.3,3.8,19.5,3.8,20.5c1.6,8.1,17.8,14.6,37.2,14.6l0,0c19.4,0,35.6-6.5,37.2-14.6
		c0-1.1,1.6-9.2,3.8-20.5v-0.5C105.4,90.7,104.9,89.6,103.8,89.6L103.8,89.6z"/>
	<ellipse class="st0" cx="64" cy="61.5" rx="8.6" ry="8.6"/>
</g>
</svg>
