<?xml version="1.0" encoding="utf-8"?>
<!-- Generator: Adobe Illustrator 22.0.1, SVG Export Plug-In . SVG Version: 6.00 Build 0)  -->
<svg version="1.1" id="Layer_1" xmlns="http://www.w3.org/2000/svg" xmlns:xlink="http://www.w3.org/1999/xlink" x="0px" y="0px"
	 viewBox="0 0 128 128" style="enable-background:new 0 0 128 128;" xml:space="preserve">
<style type="text/css">
	.st0{fill:#5B4282;}
</style>
<path class="st0" d="M76.5,65.1c-2.4-0.8-5.8-0.6-10.3-0.6h-18v23.6h19.3c3,0,5.1-0.3,6.4-0.5c2.1-0.4,3.9-1.1,5.4-2
	c1.4-0.9,2.6-2.3,3.6-4c0.9-1.7,1.4-3.7,1.4-6c0-2.6-0.7-4.6-2-6.6C80.8,67,78.9,65.9,76.5,65.1z M74,54.4c2.4-0.7,4.2-1.9,5.4-3.6
	c1.2-1.6,1.8-3.7,1.8-6.2c0-2.3-0.6-4.4-1.7-6.2s-2.7-2.5-4.8-3.1c-2.1-0.7-5.7-0.5-10.7-0.5H48.1v20.5h17
	C69.3,55.3,72.2,54.9,74,54.4z M128,17c0-9.4-7.6-17-17-17H17C7.6,0,0,7.6,0,17v94c0,9.4,7.6,17,17,17h94c9.4,0,17-7.6,17-17V17z
	 M91.7,84.7c-1.4,2.8-3.1,5-5.2,6.6c-2.1,1.5-4.6,2.8-7.7,3.6c-3.1,0.8-6.9,1.3-11.4,1.3H38.9V25.6H67c5.4,0,9.7,0.6,13,2.1
	c3.3,1.4,5.8,3.6,7.7,6.5c1.8,3,2.8,6,2.8,9.3c0,3-0.8,5.8-2.5,8.5c-1.6,2.7-4.1,4.8-7.4,6.4c4.3,1.3,7.5,3.4,9.8,6.4
	c2.3,3,3.4,6.6,3.4,10.7C93.8,78.8,93.1,81.9,91.7,84.7z"/>
</svg>
