<?xml version="1.0" encoding="utf-8"?>
<!-- Generator: Adobe Illustrator 22.0.1, SVG Export Plug-In . SVG Version: 6.00 Build 0)  -->
<svg version="1.1" id="Layer_1" xmlns="http://www.w3.org/2000/svg" xmlns:xlink="http://www.w3.org/1999/xlink" x="0px" y="0px"
	 viewBox="0 0 128 128" style="enable-background:new 0 0 128 128;" xml:space="preserve">
<style type="text/css">
	.st0{fill:#EF3F36;}
	.st1{fill:#FCD900;}
	.st2{fill:#61BC5B;}
	.st3{fill:#5AB055;}
	.st4{fill:#FFFFFF;}
	.st5{fill:url(#SVGID_1_);}
	.st6{fill:#EACA05;}
	.st7{fill:#DF3A32;}
</style>
<g>
	<path class="st0" d="M63.8,0.5c0,0,37.4-1.7,57.3,35.8H60.7c0,0-11.4-0.4-21.2,13.4c-2.8,5.8-5.8,11.8-2.4,23.5
		C32.2,65,11.2,28.7,11.2,28.7S26,2,63.8,0.5L63.8,0.5z"/>
	<path class="st1" d="M119.2,95.7c0,0-17.3,33.1-59.8,31.5c5.2-9,30.2-52.2,30.2-52.2s6-9.7-1.1-25c-3.6-5.3-7.3-10.9-19.2-13.8
		c9.6-0.1,51.7,0,51.7,0S136.8,62.3,119.2,95.7L119.2,95.7z"/>
	<path class="st2" d="M8.8,95.9c0,0-20.2-31.5,2.5-67.3c5.2,9,30.2,52.2,30.2,52.2s5.4,10,22.2,11.5c6.4-0.5,13.1-0.9,21.6-9.6
		c-4.7,8.3-25.8,44.6-25.8,44.6S29,127.8,8.8,95.9L8.8,95.9z"/>
	<path class="st3" d="M59.4,127.5l8.5-35.4c0,0,9.3-0.7,17.2-9.3C80.2,91.4,59.4,127.5,59.4,127.5L59.4,127.5z"/>
	<path class="st4" d="M35.4,64.4c0-15.6,12.7-28.2,28.3-28.2S92,48.8,92,64.4S79.3,92.6,63.7,92.6C48,92.6,35.4,80,35.4,64.4
		L35.4,64.4z"/>
	
		<linearGradient id="SVGID_1_" gradientUnits="userSpaceOnUse" x1="31.491" y1="97.2675" x2="31.491" y2="96.7907" gradientTransform="matrix(94.9348 0 0 -94.9348 -2925.9094 9275.2959)">
		<stop  offset="0" style="stop-color:#86BBE5"/>
		<stop  offset="1" style="stop-color:#1072BA"/>
	</linearGradient>
	<path class="st5" d="M40.1,64.4c0-13,10.6-23.5,23.6-23.5c13,0,23.6,10.5,23.6,23.5c0,13-10.6,23.5-23.6,23.5
		C50.7,87.9,40.1,77.4,40.1,64.4L40.1,64.4z"/>
	<path class="st6" d="M121,36.2L86,46.5c0,0-5.3-7.7-16.6-10.2C79.2,36.2,121,36.2,121,36.2L121,36.2z"/>
	<path class="st7" d="M36.4,72c-4.9-8.5-25.1-43.3-25.1-43.3l25.9,25.6c0,0-2.7,5.5-1.7,13.3L36.4,72L36.4,72z"/>
</g>
</svg>
