<?xml version="1.0" encoding="utf-8"?>
<!-- Generator: Adobe Illustrator 22.0.1, SVG Export Plug-In . SVG Version: 6.00 Build 0)  -->
<svg version="1.1" id="Layer_1" xmlns="http://www.w3.org/2000/svg" xmlns:xlink="http://www.w3.org/1999/xlink" x="0px" y="0px"
	 viewBox="0 0 128 128" style="enable-background:new 0 0 128 128;" xml:space="preserve">
<style type="text/css">
	.st0{fill:#1572B6;}
	.st1{fill:#33A9DC;}
	.st2{fill:#EBEBEB;}
	.st3{fill:#FFFFFF;}
</style>
<g>
	<path class="st0" d="M18.2,114.8L8,0.5h112l-10.2,114.3l-45.9,12.7C63.9,127.5,18.2,114.8,18.2,114.8z"/>
	<path class="st1" d="M64,117.8l37.1-10.3l8.7-97.7H64C64,9.8,64,117.8,64,117.8z"/>
	<path class="st2" d="M64.1,87.7L64.1,87.7l-15.7-4.2l-1-11.2H33.3l2,22l28.7,8l0.1,0C64.1,102.3,64.1,87.7,64.1,87.7z"/>
	<polygon class="st3" points="64,22.9 64,36.9 83.8,36.9 82.6,51.3 64,51.3 64,65.3 81.3,65.3 79.7,83.5 64,87.7 64,102.3 
		92.8,94.3 93,91.9 95.4,65.3 95.4,65.3 98.8,26.6 99.2,22.9 	"/>
	<path class="st2" d="M64,22.9v14H30.2l-0.3-3.2l-0.6-7.1l-0.3-3.8C28.9,22.9,64,22.9,64,22.9z M64,51.3v14H48.6l-0.3-3.2L47.7,55
		l-0.3-3.8H64z"/>
</g>
</svg>
