<?xml version="1.0" encoding="utf-8"?>
<!-- Generator: Adobe Illustrator 22.0.1, SVG Export Plug-In . SVG Version: 6.00 Build 0)  -->
<svg version="1.1" id="Layer_1" xmlns="http://www.w3.org/2000/svg" xmlns:xlink="http://www.w3.org/1999/xlink" x="0px" y="0px"
	 viewBox="0 0 128 128" style="enable-background:new 0 0 128 128;" xml:space="preserve">
<style type="text/css">
	.st0{fill:#F34F29;}
</style>
<path class="st0" d="M125.1,58.3L69.7,2.9c-3.2-3.2-8.4-3.2-11.6,0L46.6,14.4L61.2,29c3.4-1.1,7.3-0.4,10,2.3
	c2.7,2.7,3.5,6.6,2.3,10.1l14.1,14.1c3.4-1.2,7.3-0.4,10.1,2.3c3.8,3.8,3.8,10,0,13.8c-3.8,3.8-10,3.8-13.8,0
	c-2.9-2.9-3.6-7.1-2.1-10.6L68.6,47.8l0,34.5c0.9,0.5,1.8,1.1,2.6,1.8c3.8,3.8,3.8,10,0,13.8c-3.8,3.8-10,3.8-13.8,0
	c-3.8-3.8-3.8-10,0-13.8c0.9-0.9,2-1.6,3.2-2.1V47.2c-1.2-0.5-2.2-1.2-3.2-2.1c-2.9-2.9-3.6-7.1-2.1-10.6L40.9,20.1l-38,38
	c-3.2,3.2-3.2,8.4,0,11.6l55.5,55.4c3.2,3.2,8.4,3.2,11.6,0l55.2-55.2C128.3,66.7,128.3,61.5,125.1,58.3z"/>
</svg>
