<?xml version="1.0" encoding="utf-8"?>
<!-- Generator: Adobe Illustrator 22.0.1, SVG Export Plug-In . SVG Version: 6.00 Build 0)  -->
<svg version="1.1" id="Layer_1" xmlns="http://www.w3.org/2000/svg" xmlns:xlink="http://www.w3.org/1999/xlink" x="0px" y="0px"
	 viewBox="0 0 128 128" style="enable-background:new 0 0 128 128;" xml:space="preserve">
<path d="M64,2C28.9,2,0.5,30.5,0.5,65.6c0,28.1,18.2,51.9,43.4,60.3c3.2,0.6,4.3-1.4,4.3-3.1c0-1.5-0.1-6.5-0.1-11.8
	c-17.7,3.8-21.4-7.5-21.4-7.5c-2.9-7.3-7.1-9.3-7.1-9.3c-5.8-3.9,0.4-3.9,0.4-3.9c6.4,0.4,9.7,6.6,9.7,6.6
	c5.7,9.7,14.9,6.9,18.5,5.3c0.6-4.1,2.2-6.9,4-8.5c-14.1-1.6-28.9-7.1-28.9-31.4c0-6.9,2.5-12.6,6.5-17.1c-0.7-1.6-2.8-8.1,0.6-16.8
	c0,0,5.3-1.7,17.5,6.5c5.1-1.4,10.5-2.1,15.9-2.1c5.4,0,10.8,0.7,15.9,2.1c12.1-8.2,17.4-6.5,17.4-6.5c3.5,8.8,1.3,15.2,0.6,16.8
	c4.1,4.5,6.5,10.1,6.5,17.1c0,24.4-14.9,29.8-29,31.4c2.3,2,4.3,5.8,4.3,11.8c0,8.5-0.1,15.4-0.1,17.4c0,1.7,1.1,3.7,4.4,3
	c25.2-8.4,43.4-32.2,43.4-60.3C127.5,30.5,99.1,2,64,2L64,2z"/>
<path d="M24.6,93.2c-0.1,0.3-0.6,0.4-1.1,0.2c-0.5-0.2-0.7-0.6-0.6-1c0.1-0.3,0.6-0.4,1.1-0.2C24.4,92.5,24.7,92.9,24.6,93.2
	L24.6,93.2z M27.1,96.1c-0.3,0.3-0.9,0.2-1.3-0.3c-0.4-0.4-0.5-1-0.2-1.3c0.3-0.3,0.9-0.1,1.3,0.3C27.4,95.2,27.4,95.8,27.1,96.1
	L27.1,96.1z M29.6,99.8c-0.4,0.3-1,0-1.4-0.5c-0.4-0.6-0.4-1.2,0-1.5c0.4-0.3,1,0,1.4,0.5C30,98.8,30,99.5,29.6,99.8L29.6,99.8z
	 M33.1,103.3c-0.3,0.4-1.1,0.3-1.6-0.2c-0.6-0.5-0.7-1.2-0.4-1.6c0.4-0.4,1.1-0.3,1.6,0.2C33.3,102.2,33.4,102.9,33.1,103.3
	L33.1,103.3z M37.8,105.4c-0.2,0.5-0.9,0.7-1.6,0.5c-0.7-0.2-1.2-0.8-1-1.3c0.1-0.5,0.9-0.7,1.6-0.5
	C37.5,104.3,37.9,104.8,37.8,105.4z M43,105.7c0,0.5-0.6,1-1.3,1c-0.8,0-1.4-0.4-1.4-0.9c0-0.5,0.6-1,1.4-1
	C42.4,104.8,43,105.2,43,105.7L43,105.7z M47.8,104.9c0.1,0.5-0.4,1-1.2,1.2c-0.7,0.1-1.4-0.2-1.5-0.7c-0.1-0.5,0.4-1,1.2-1.2
	C47.1,104.1,47.7,104.4,47.8,104.9L47.8,104.9z"/>
</svg>
