<?xml version="1.0" encoding="utf-8"?>
<!-- Generator: Adobe Illustrator 22.0.1, SVG Export Plug-In . SVG Version: 6.00 Build 0)  -->
<svg version="1.1" id="Layer_1" xmlns="http://www.w3.org/2000/svg" xmlns:xlink="http://www.w3.org/1999/xlink" x="0px" y="0px"
	 viewBox="0 0 128 128" style="enable-background:new 0 0 128 128;" xml:space="preserve">
<style type="text/css">
	.st0{fill:#E44D26;}
	.st1{fill:#F16529;}
	.st2{fill:#EBEBEB;}
	.st3{fill:#FFFFFF;}
</style>
<g>
	<path class="st0" d="M18.2,114.8L8,0.5h112l-10.2,114.3l-45.9,12.7L18.2,114.8z"/>
	<path class="st1" d="M64,117.8l37.1-10.3l8.7-97.7H64L64,117.8z"/>
	<path class="st2" d="M64,52.2H45.4l-1.3-14.4H64v-14H28.8l0.3,3.8l3.4,38.6H64L64,52.2z M64,88.6L64,88.6l-15.7-4.2l-1-11.2H33.2
		l2,22l28.7,8l0.1,0V88.6z"/>
	<path class="st3" d="M64,52.2v14h17.3l-1.6,18.2L64,88.7v14.6l28.7-8l0.2-2.4L96.2,56l0.3-3.8h-3.8H64z M64,23.9v14h33.9l0.3-3.1
		l0.6-7.1l0.3-3.8H64z"/>
</g>
</svg>
