<?xml version="1.0" encoding="utf-8"?>
<!-- Generator: Adobe Illustrator 22.0.1, SVG Export Plug-In . SVG Version: 6.00 Build 0)  -->
<svg version="1.1" id="Layer_1" xmlns="http://www.w3.org/2000/svg" xmlns:xlink="http://www.w3.org/1999/xlink" x="0px" y="0px"
	 viewBox="0 0 128 128" style="enable-background:new 0 0 128 128;" xml:space="preserve">
<style type="text/css">
	.st0{fill:#0868AC;}
</style>
<path class="st0" d="M8.6,31.4C-2.7,47.6-1.3,68.8,7.3,86c0.2,0.4,0.4,0.8,0.6,1.2L8.3,88l0.3,0.4L9,89.3c0.3,0.5,0.5,0.9,0.8,1.4
	l0.5,0.8c0.3,0.5,0.6,1,1,1.5l0.4,0.6c0.4,0.7,0.9,1.3,1.4,2l0,0.1l0.2,0.3c0.4,0.6,0.8,1.1,1.3,1.7l0.5,0.6c0.4,0.5,0.8,1,1.2,1.4
	l0.4,0.5c0.5,0.6,1.1,1.2,1.6,1.9l0,0l0.1,0.1c0.5,0.6,1.1,1.2,1.6,1.7l0.5,0.5c0.4,0.4,0.9,0.9,1.3,1.3l0.5,0.5
	c0.6,0.6,1.2,1.1,1.8,1.6l0,0l0.3,0.3c0.5,0.5,1.1,0.9,1.6,1.4l0.7,0.5c0.4,0.4,0.9,0.7,1.4,1.1l0.7,0.6c0.5,0.4,1,0.7,1.5,1.1
	l0.6,0.4l0.2,0.1c0.5,0.3,1,0.7,1.5,1l0.6,0.4c0.8,0.5,1.5,1,2.3,1.4l0.6,0.4c0.6,0.3,1.2,0.7,1.7,1c0.3,0.2,0.6,0.3,1,0.5
	c0.4,0.2,0.8,0.4,1.2,0.7l0.3,0.1l0.5,0.2c0.7,0.3,1.3,0.6,2,0.9l0.4,0.2c0.8,0.3,1.5,0.7,2.3,1l0.6,0.2c0.7,0.3,1.4,0.6,2.2,0.8
	l0.3,0.1c0.8,0.3,1.6,0.5,2.4,0.8l0.6,0.2c0.8,0.3,1.7,0.6,2.5,0.7c54.4,10,70.2-32.9,70.2-32.9c-13.3,17.4-36.8,22-59.1,16.9
	c-0.8-0.2-1.7-0.5-2.5-0.7l-0.6-0.2c-0.8-0.2-1.6-0.5-2.4-0.8l-0.3-0.1c-0.7-0.3-1.4-0.5-2.1-0.8l-0.6-0.2c-0.8-0.3-1.5-0.6-2.3-1
	L54,104c-0.6-0.3-1.3-0.6-1.9-0.9l-0.6-0.3c-0.5-0.2-1-0.5-1.5-0.8c-0.3-0.2-0.7-0.3-1-0.5c-0.6-0.3-1.2-0.7-1.8-1l-0.6-0.3
	c-0.8-0.5-1.6-0.9-2.3-1.4l-0.6-0.4c-0.6-0.4-1.1-0.7-1.7-1.1l-0.5-0.4c-0.5-0.4-1-0.8-1.6-1.1l-0.7-0.5c-0.5-0.4-0.9-0.7-1.4-1.1
	l-0.6-0.5c-0.6-0.5-1.2-1-1.8-1.5L35.3,92c-0.6-0.6-1.2-1.1-1.8-1.7l-0.5-0.5c-0.4-0.4-0.9-0.9-1.3-1.3l-0.5-0.5
	c-0.6-0.6-1.1-1.1-1.6-1.7l-0.1-0.1c-0.6-0.6-1.1-1.3-1.7-1.9l-0.4-0.5c-0.4-0.5-0.8-1-1.2-1.5l-0.4-0.5c-0.5-0.6-0.9-1.2-1.4-1.8
	c-12.4-17-16.8-40.4-6.9-59.7 M43.5,17.7c-8.1,11.8-7.7,27.5-1.3,40c1.1,2.1,2.3,4.1,3.6,6c1.2,1.8,2.6,3.8,4.2,5.3
	c0.6,0.6,1.2,1.3,1.8,1.9l0.5,0.5c0.6,0.6,1.2,1.2,1.9,1.7l0.1,0.1l0,0c0.7,0.6,1.4,1.2,2.2,1.8l0.5,0.4c0.7,0.6,1.5,1.1,2.3,1.7
	l0.1,0.1c0.3,0.2,0.7,0.5,1,0.7l0.5,0.3c0.6,0.4,1.1,0.7,1.7,1l0.2,0.1c0.5,0.3,1,0.6,1.5,0.8l0.5,0.3c0.3,0.2,0.7,0.4,1,0.5
	l0.2,0.1c0.7,0.4,1.4,0.7,2.2,1l0.5,0.2c0.6,0.3,1.2,0.5,1.8,0.7l0.8,0.3c0.5,0.2,1.1,0.4,1.6,0.6l0.7,0.2c0.8,0.2,1.6,0.6,2.4,0.7
	c42,7,51.7-25.5,51.7-25.5c-8.7,12.7-25.7,18.7-43.7,14c-0.8-0.2-1.6-0.4-2.4-0.7l-0.7-0.2c-0.6-0.2-1.1-0.4-1.7-0.6l-0.8-0.3
	c-0.6-0.2-1.2-0.5-1.8-0.7L76,70.5c-0.7-0.3-1.5-0.7-2.2-1c-0.4-0.2-0.7-0.4-1.1-0.6l-0.6-0.3c-0.5-0.3-0.9-0.5-1.4-0.8l-0.3-0.2
	c-0.6-0.3-1.1-0.7-1.7-1l-0.5-0.3c-0.4-0.2-0.7-0.5-1.1-0.7c-0.8-0.5-1.5-1.1-2.3-1.7l-0.5-0.4c-7.9-6.3-14.2-14.8-17.1-24.6
	c-3.1-10.1-2.4-21.4,3-30.6 M72.8,7.5c-4.8,7.1-5.3,15.9-1.9,23.7C74.4,39.5,81.6,46,90,49.1c0.3,0.1,0.7,0.2,1,0.4l0.5,0.1
	c0.5,0.2,1,0.3,1.5,0.4c23.2,4.5,29.5-12,31.1-14.4c-5.5,8-14.8,9.9-26.1,7.1c-0.9-0.2-1.9-0.5-2.7-0.9c-1.1-0.4-2.2-0.9-3.3-1.4
	c-2-1-3.9-2.2-5.7-3.5c-10.2-7.8-16.5-22.5-9.8-34.6"/>
</svg>
