<?xml version="1.0" encoding="utf-8"?>
<!-- Generator: Adobe Illustrator 22.0.1, SVG Export Plug-In . SVG Version: 6.00 Build 0)  -->
<svg version="1.1" id="Layer_1" xmlns="http://www.w3.org/2000/svg" xmlns:xlink="http://www.w3.org/1999/xlink" x="0px" y="0px"
	 viewBox="0 0 128 128" style="enable-background:new 0 0 128 128;" xml:space="preserve">
<style type="text/css">
	.st0{fill:url(#XMLID_4_);}
	.st1{fill:url(#XMLID_5_);}
	.st2{fill:#32A6A6;}
	.st3{fill:#247777;}
	.st4{fill:#1E6261;}
	.st5{fill:#1C5A5A;}
	.st6{fill:#257878;}
	.st7{fill:#185050;}
	.st8{opacity:0.5;fill:url(#XMLID_6_);}
	.st9{opacity:0.5;fill:url(#XMLID_7_);}
	.st10{fill:url(#XMLID_8_);}
	.st11{fill:#2D9393;}
	.st12{fill:#2E9996;}
</style>
<linearGradient id="XMLID_4_" gradientUnits="userSpaceOnUse" x1="-0.1794" y1="119.3999" x2="127.9204" y2="43.9713">
	<stop  offset="0" style="stop-color:#46E7E6"/>
	<stop  offset="1" style="stop-color:#159999"/>
</linearGradient>
<polygon id="XMLID_29_" class="st0" points="127.5,121.5 127.5,41.8 63.7,6.5 0.5,41.7 0.5,121.5 25.5,121.5 37.3,85.9 64,118.4 
	89.5,87.4 100.4,121.5 "/>
<linearGradient id="XMLID_5_" gradientUnits="userSpaceOnUse" x1="3.8587" y1="62.5599" x2="114.7044" y2="38.7695">
	<stop  offset="0" style="stop-color:#38B9B9"/>
	<stop  offset="1" style="stop-color:#0B6969"/>
</linearGradient>
<polygon id="XMLID_28_" class="st1" points="63.7,6.5 0.5,41.8 37.3,85.9 48.1,53.5 63.7,6.5 78.7,53.5 89.5,87.4 127.5,41.8 "/>
<polygon id="XMLID_27_" class="st2" points="25.5,121.5 63.7,6.5 25.5,53.5 "/>
<polygon id="XMLID_26_" class="st3" points="100.4,121.5 63.7,6.5 100.2,53.5 100.2,73.7 "/>
<polygon id="XMLID_25_" class="st4" points="41.6,72.9 63.7,6.5 25.5,53.5 "/>
<polygon id="XMLID_24_" class="st5" points="84.9,72.9 63.7,6.5 100.2,53.5 "/>
<polygon id="XMLID_23_" class="st6" points="25.5,71.8 37.3,85.9 41.6,72.9 25.5,53.5 "/>
<polygon id="XMLID_22_" class="st7" points="100.2,74.5 89.5,87.4 84.9,72.9 100.2,53.5 "/>
<linearGradient id="XMLID_6_" gradientUnits="userSpaceOnUse" x1="76.3857" y1="102.3984" x2="76.8815" y2="102.8145">
	<stop  offset="0" style="stop-color:#0B6969"/>
	<stop  offset="1" style="stop-color:#159999"/>
</linearGradient>
<polygon id="XMLID_34_" class="st8" points="63.5,117.8 64,118.4 89.5,87.6 89.3,86.8 "/>
<linearGradient id="XMLID_7_" gradientUnits="userSpaceOnUse" x1="94.7796" y1="80.5616" x2="94.9869" y2="80.7356">
	<stop  offset="0" style="stop-color:#0B3D3D"/>
	<stop  offset="1" style="stop-color:#0B6969"/>
</linearGradient>
<polygon id="XMLID_36_" class="st9" points="100.2,73.7 89.3,86.8 89.5,87.6 100.2,74.7 "/>
<linearGradient id="XMLID_8_" gradientUnits="userSpaceOnUse" x1="113.4191" y1="57.882" x2="113.8465" y2="58.2406">
	<stop  offset="0" style="stop-color:#0B6969"/>
	<stop  offset="1" style="stop-color:#159999"/>
</linearGradient>
<polygon id="XMLID_35_" class="st10" points="127,41.5 100.2,73.7 100.2,74.7 127.5,41.8 "/>
<polygon id="XMLID_1_" class="st11" points="63.7,6.5 41.6,72.9 64,95.8 84.9,72.9 "/>
<polygon id="XMLID_3_" class="st12" points="63.7,6.5 64,95.8 84.9,72.9 "/>
</svg>
