<?xml version="1.0" encoding="utf-8"?>
<!-- Generator: Adobe Illustrator 22.0.1, SVG Export Plug-In . SVG Version: 6.00 Build 0)  -->
<svg version="1.1" id="Layer_1" xmlns="http://www.w3.org/2000/svg" xmlns:xlink="http://www.w3.org/1999/xlink" x="0px" y="0px"
	 viewBox="0 0 128 128" style="enable-background:new 0 0 128 128;" xml:space="preserve">
<style type="text/css">
	.st0{fill:url(#SVGID_1_);}
	.st1{fill:#6181B6;}
	.st2{fill:#FFFFFF;}
	.st3{fill:#000004;}
</style>
<g>
	
		<radialGradient id="SVGID_1_" cx="-118.8396" cy="252.5775" r="180.1101" gradientTransform="matrix(0.463 0 0 -0.4646 93.6484 159.4199)" gradientUnits="userSpaceOnUse">
		<stop  offset="0" style="stop-color:#FFFFFF"/>
		<stop  offset="0.5" style="stop-color:#4C6B97"/>
		<stop  offset="1" style="stop-color:#231F20"/>
	</radialGradient>
	<ellipse class="st0" cx="64" cy="63.8" rx="63.5" ry="33.5"/>
	<ellipse class="st1" cx="64" cy="63.8" rx="61" ry="31"/>
	<g>
		<path class="st2" d="M76.4,73.9l3-15.6c0.7-3.5,0.1-6.2-1.7-7.8C76,48.8,73,48,68.6,48h-5.3l1.5-7.8c0-0.3,0-0.6-0.2-0.8
			c-0.2-0.2-0.4-0.3-0.7-0.3h-7.2c-0.5,0-0.9,0.3-1,0.8l-3.2,16.6c-0.3-1.9-1-3.5-2.2-4.8c-2.1-2.4-5.5-3.7-10-3.7H26.3
			c-0.5,0-0.9,0.3-1,0.8l-6.5,33.6c0,0.3,0,0.6,0.2,0.8s0.4,0.3,0.7,0.3h7.3c0.5,0,0.9-0.3,1-0.8l1.6-8.1h5.4c2.8,0,5.3-0.3,7.1-0.9
			c1.9-0.6,3.7-1.7,5.2-3.1c1.2-1.1,2.3-2.4,3.1-3.8l-1.3,6.7c0,0.3,0,0.6,0.2,0.8s0.4,0.3,0.7,0.3h7.2c0.5,0,0.9-0.3,1-0.8
			l3.6-18.4h5c2.1,0,2.7,0.4,2.9,0.6c0.1,0.1,0.4,0.7,0.1,2.6L67,73.6c0,0.3,0,0.6,0.2,0.8s0.4,0.3,0.7,0.3h7.4
			C75.9,74.7,76.3,74.3,76.4,73.9z M42.8,60.9c-0.4,2.3-1.3,4-2.5,5s-3.3,1.4-6,1.4h-3.2l2.3-12h4.2c3.1,0,4.3,0.6,4.8,1.2
			C43.1,57.3,43.2,58.8,42.8,60.9z"/>
		<path class="st2" d="M107.3,51.7c-2.1-2.4-5.5-3.7-10-3.7h-14c-0.5,0-0.9,0.3-1,0.8l-6.5,33.6c0,0.3,0,0.6,0.2,0.8
			c0.2,0.2,0.4,0.3,0.7,0.3H84c0.5,0,0.9-0.3,1-0.8l1.6-8.1H92c2.8,0,5.3-0.3,7.1-0.9c1.9-0.6,3.7-1.7,5.2-3.1
			c1.3-1.2,2.4-2.5,3.2-4s1.4-3,1.7-4.8C110.1,57.5,109.4,54.1,107.3,51.7z M99.7,60.9c-0.4,2.3-1.3,4-2.5,5s-3.3,1.4-6,1.4H88
			l2.3-12h4.2c3.1,0,4.3,0.6,4.8,1.2C100,57.3,100.2,58.8,99.7,60.9z"/>
	</g>
	<g>
		<path class="st3" d="M37.6,54.3c2.8,0,4.6,0.5,5.6,1.5c0.9,1,1.1,2.8,0.6,5.3c-0.5,2.6-1.5,4.5-2.9,5.6c-1.4,1.1-3.6,1.6-6.5,1.6
			h-4.4l2.7-14H37.6z M19.8,82.6h7.3l1.7-8.9h6.3c2.8,0,5-0.3,6.8-0.9c1.8-0.6,3.4-1.5,4.9-2.9c1.2-1.1,2.2-2.4,3-3.7
			s1.3-2.8,1.6-4.5c0.8-4,0.2-7.1-1.7-9.3c-1.9-2.2-5-3.3-9.2-3.3h-14L19.8,82.6z"/>
		<path class="st3" d="M56.7,40.1H64L62.2,49h6.4c4.1,0,6.8,0.7,8.4,2.1c1.5,1.4,2,3.7,1.4,6.9l-3,15.6h-7.3l2.9-14.9
			c0.3-1.7,0.2-2.8-0.3-3.4c-0.5-0.6-1.8-0.9-3.6-0.9h-5.8l-3.7,19.3h-7.2L56.7,40.1z"/>
		<path class="st3" d="M94.5,54.3c2.8,0,4.6,0.5,5.6,1.5c0.9,1,1.1,2.8,0.6,5.3c-0.5,2.6-1.5,4.5-2.9,5.6s-3.6,1.6-6.5,1.6h-4.4
			l2.7-14H94.5z M76.7,82.6H84l1.7-8.9H92c2.8,0,5-0.3,6.8-0.9c1.8-0.6,3.4-1.5,4.9-2.9c1.2-1.1,2.2-2.4,3-3.7s1.3-2.8,1.6-4.5
			c0.8-4,0.2-7.1-1.7-9.3c-1.9-2.2-5-3.3-9.2-3.3h-14L76.7,82.6z"/>
	</g>
</g>
</svg>
