<?xml version="1.0" encoding="utf-8"?>
<!-- Generator: Adobe Illustrator 22.0.1, SVG Export Plug-In . SVG Version: 6.00 Build 0)  -->
<svg version="1.1" id="Layer_1" xmlns="http://www.w3.org/2000/svg" xmlns:xlink="http://www.w3.org/1999/xlink" x="0px" y="0px"
	 viewBox="0 0 128 128" style="enable-background:new 0 0 128 128;" xml:space="preserve">
<style type="text/css">
	.st0{fill:#56D5FA;}
</style>
<path class="st0" d="M107.9,44.8c-2.2-0.8-4.6-1.6-7-2.3c0.6-2.4,1.1-4.9,1.5-7.2c2.1-13.5-0.2-22.9-6.7-26.6
	C93.8,7.5,91.7,7,89.3,7C82.2,7,73.1,12.3,64,21.2C54.9,12.3,45.8,7,38.7,7c-2.4,0-4.6,0.5-6.5,1.6c-6.5,3.8-8.8,13.3-6.7,26.6
	c0.4,2.3,0.9,4.8,1.5,7.2c-2.4,0.7-4.8,1.4-7,2.3C7.4,49.7,0.5,56.5,0.5,64s7,14.3,19.6,19.2c2.2,0.8,4.6,1.6,7,2.3
	c-0.6,2.4-1.1,4.9-1.5,7.2c-2.1,13.5,0.2,22.9,6.7,26.6c1.9,1.1,4.1,1.6,6.5,1.6c7.2,0,16.2-5.3,25.3-14.2
	c9.1,8.9,18.2,14.2,25.3,14.2c2.4,0,4.6-0.5,6.5-1.6c6.5-3.8,8.8-13.3,6.7-26.6c-0.4-2.3-0.9-4.8-1.5-7.2c2.4-0.7,4.8-1.4,7-2.3
	c12.7-4.9,19.6-11.6,19.6-19.2S120.6,49.7,107.9,44.8z M92.9,13.7c4.2,2.4,5.6,10,3.9,20.7c-0.3,2.1-0.8,4.4-1.4,6.7
	c-5.3-1.2-10.9-2-16.7-2.5c-3.4-4.9-7-9.3-10.5-13.3c7.5-7.4,15.1-12.5,21.3-12.5C90.7,12.8,91.9,13.1,92.9,13.7z M81.5,74.2
	c-1.8,3.3-4,6.5-6.2,9.8c-3.8,0.3-7.5,0.4-11.4,0.4c-4,0-7.7-0.1-11.4-0.4c-2.2-3.3-4.3-6.5-6.1-9.8c-1.9-3.4-3.8-6.8-5.4-10.2
	c1.6-3.4,3.4-6.8,5.4-10.2c1.8-3.3,4-6.5,6.2-9.8c3.8-0.3,7.5-0.4,11.4-0.4c4,0,7.7,0.1,11.4,0.4c2.2,3.3,4.3,6.5,6.1,9.8
	c1.9,3.4,3.8,6.8,5.4,10.2C85.2,67.4,83.5,70.7,81.5,74.2z M90,70.8c1.5,3.6,2.7,7,3.9,10.5c-3.4,0.8-7.1,1.4-11,1.9
	c1.2-1.9,2.5-4,3.7-6.1C87.7,75,88.9,72.9,90,70.8z M64,98.5c-2.4-2.7-4.8-5.5-7-8.5c2.3,0.1,4.7,0.2,7,0.2s4.7-0.1,7-0.2
	C68.8,93,66.4,95.8,64,98.5z M45.1,83.2c-3.9-0.5-7.5-1.1-11-1.9c1.1-3.4,2.3-6.9,3.9-10.5c1.1,2,2.2,4.2,3.4,6.2
	C42.7,79.2,43.9,81.1,45.1,83.2z M38,57.2c-1.5-3.6-2.7-7-3.9-10.5c3.4-0.8,7.1-1.4,11-1.9c-1.2,1.9-2.5,4-3.7,6.1
	C40.3,53,39.1,55.1,38,57.2z M64,29.5c2.4,2.7,4.8,5.5,7,8.5c-2.3-0.1-4.7-0.2-7-0.2c-2.3,0-4.7,0.1-7,0.2
	C59.2,35,61.6,32.2,64,29.5z M86.5,50.9l-3.7-6.1c3.9,0.5,7.5,1.1,11,1.9c-1.1,3.4-2.3,6.9-3.9,10.5C88.9,55.1,87.7,53,86.5,50.9z
	 M31.2,34.4c-1.7-10.7-0.3-18.3,3.9-20.7c1-0.6,2.2-0.9,3.6-0.9c6.1,0,13.7,5,21.3,12.5c-3.6,3.9-7.1,8.4-10.5,13.3
	c-5.9,0.5-11.5,1.4-16.7,2.5C32,38.8,31.6,36.6,31.2,34.4z M6.2,64c0-4.8,5.8-9.9,15.9-13.7c2-0.8,4.3-1.5,6.5-2.1
	c1.6,5.1,3.7,10.5,6.1,15.9c-2.4,5.4-4.6,10.7-6.1,15.8C14.6,75.8,6.2,69.7,6.2,64z M35.1,114.3c-4.2-2.4-5.6-10-3.9-20.7
	c0.3-2.1,0.8-4.4,1.4-6.7c5.3,1.2,10.9,2,16.7,2.5c3.4,4.9,7,9.3,10.5,13.3c-7.5,7.4-15.1,12.5-21.3,12.5
	C37.3,115.2,36.1,114.9,35.1,114.3z M96.8,93.6c1.7,10.7,0.3,18.3-3.9,20.7c-1,0.6-2.2,0.9-3.6,0.9c-6.1,0-13.7-5-21.3-12.5
	c3.6-3.9,7.1-8.4,10.5-13.3c5.9-0.5,11.5-1.4,16.7-2.5C96,89.2,96.4,91.4,96.8,93.6z M105.9,77.7c-2,0.8-4.3,1.5-6.5,2.1
	c-1.6-5.1-3.7-10.5-6.1-15.9c2.4-5.4,4.6-10.7,6.1-15.8c14,4.1,22.4,10.2,22.4,15.9C121.8,68.8,115.9,73.9,105.9,77.7z"/>
<circle class="st0" cx="64.1" cy="64" r="11.6"/>
</svg>
