<?xml version="1.0" encoding="utf-8"?>
<!-- Generator: Adobe Illustrator 22.0.1, SVG Export Plug-In . SVG Version: 6.00 Build 0)  -->
<svg version="1.1" id="Layer_1" xmlns="http://www.w3.org/2000/svg" xmlns:xlink="http://www.w3.org/1999/xlink" x="0px" y="0px"
	 viewBox="0 0 128 128" style="enable-background:new 0 0 128 128;" xml:space="preserve">
<style type="text/css">
	.st0{fill:#764ABC;}
</style>
<path class="st0" d="M88.5,88c4.7-0.5,8.2-4.5,8.1-9.4c-0.2-4.9-4.2-8.8-9.1-8.8h-0.3c-5,0.2-8.9,4.4-8.7,9.4c0.2,2.4,1.1,4.5,2.6,6
	c-5.5,10.9-13.9,18.8-26.5,25.5c-8.6,4.5-17.5,6.2-26.3,5c-7.3-1-12.9-4.2-16.5-9.6C6.6,98.2,6.1,89.6,10.4,81
	c3.1-6.2,7.9-10.7,11-13c-0.6-2.1-1.6-5.7-2.1-8.3c-23.4,17-21,40.1-13.9,50.9c5.3,8.1,16.2,13.1,28.1,13.1c3.2,0,6.5-0.3,9.7-1.1
	C63.9,118.7,79.6,106.3,88.5,88z M116.9,67.9c-12.3-14.4-30.4-22.4-51.1-22.4h-2.6c-1.5-2.9-4.5-4.9-7.9-4.9H55
	c-5,0.2-8.9,4.4-8.7,9.4c0.2,4.9,4.2,8.8,9.1,8.8h0.3c3.6-0.2,6.6-2.4,7.9-5.5h2.9c12.3,0,23.9,3.6,34.4,10.5
	c8.1,5.4,13.9,12.3,17.1,20.8c2.7,6.8,2.6,13.5-0.3,19.1c-4.5,8.6-12.1,13.3-22.1,13.3c-6.5,0-12.6-1.9-15.8-3.4
	c-1.8,1.6-5,4.2-7.3,5.8c6.9,3.2,14.1,5,20.8,5c15.5,0,27-8.6,31.4-17.2C129.4,97.9,129.1,81.7,116.9,67.9z M34.8,90.8
	c0.2,4.9,4.2,8.8,9.1,8.8h0.3c5-0.2,8.9-4.4,8.7-9.4c-0.2-4.9-4.2-8.8-9.1-8.8h-0.3c-0.3,0-0.8,0-1.1,0.2c-6.6-11-9.4-23-8.4-36
	c0.6-9.7,3.9-18.2,9.5-25.1c4.7-6,13.7-8.9,19.9-9.1C80.6,11,87.9,32.4,88.3,41c2.1,0.5,5.7,1.6,8.1,2.4
	C94.5,17.1,78.3,3.5,62.8,3.5c-14.5,0-28,10.5-33.3,26.1c-7.4,20.8-2.6,40.7,6.5,56.4C35.2,87.2,34.7,89,34.8,90.8z"/>
</svg>
