<?xml version="1.0" encoding="utf-8"?>
<!-- Generator: Adobe Illustrator 22.0.1, SVG Export Plug-In . SVG Version: 6.00 Build 0)  -->
<svg version="1.1" id="Layer_1" xmlns="http://www.w3.org/2000/svg" xmlns:xlink="http://www.w3.org/1999/xlink" x="0px" y="0px"
	 viewBox="0 0 128 128" style="enable-background:new 0 0 128 128;" xml:space="preserve">
<style type="text/css">
	.st0{fill:#205081;}
</style>
<path class="st0" d="M64,0.7C29.1,0.7,0.7,29.1,0.7,64s28.4,63.3,63.3,63.3c34.9,0,63.3-28.4,63.3-63.3S98.9,0.7,64,0.7z
	 M67.3,120.9v-11L94.8,96c0.7-0.3,1.1-1,1.1-1.7V88c2.6-0.9,4.3-3.5,4-6.3c-0.3-3.3-3.2-5.7-6.5-5.4c-3.3,0.3-5.7,3.2-5.4,6.5
	c0,0.1,0,0.1,0,0.2c0.2,2.3,1.8,4.3,4,5v5.1l-24.6,12.5V95.3l10.8-5c0.7-0.3,1.1-1,1.1-1.8l0-17l20.1-11.3c0.6-0.3,1-1,1-1.7v-4.7
	c3.1-1.1,4.8-4.5,3.7-7.6c-0.9-2.6-3.5-4.3-6.3-4c-3.3,0.3-5.7,3.3-5.3,6.6c0.2,2.3,1.8,4.3,4,5v3.6L76.4,68.6c-0.6,0.3-1,1-1,1.7
	l0,16.9L67.3,91V54.2l16.9-8.3c0.7-0.3,1.1-1,1.1-1.8v-6.3c2.6-0.9,4.3-3.5,4-6.3C89,28.4,86,26,82.7,26.3c0,0,0,0,0,0
	c-3.3,0.3-5.7,3.3-5.3,6.6c0,0,0,0,0,0c0.2,2.3,1.8,4.3,4,5V43l-14.1,6.9V28.6c3.1-1.1,4.8-4.5,3.7-7.6c-1.1-3.1-4.5-4.8-7.6-3.7
	c-2.6,0.9-4.3,3.5-4,6.3c0.2,2.3,1.8,4.3,4,5v34.6L53.5,58V42.3c0-0.6-0.3-1.2-0.8-1.6l-6.8-5.2c1.3-3-0.2-6.5-3.2-7.8
	c-3-1.3-6.5,0.2-7.8,3.2s0.2,6.5,3.2,7.8c1.7,0.7,3.6,0.6,5.2-0.3l6.3,4.8v16c0,0.7,0.4,1.4,1,1.7l12.8,6.7v12.7L42,70.5l0.3-7.7
	c0-0.8-0.4-1.5-1.1-1.8l-9.8-5c0.1-0.6,0.2-1.3,0.1-2c-0.4-3.3-3.3-5.6-6.6-5.3c-3.2,0.4-5.6,3.2-5.3,6.5c0.3,3.3,3.3,5.7,6.6,5.3
	c1.1-0.1,2.2-0.6,3.1-1.3l9,4.6l-0.3,7.8c0,0.8,0.4,1.5,1.1,1.8l24.2,11.2v9.1c0,0.2,0,0.3,0,0.5V121c-2,0-4.1-0.2-6.1-0.4V97.7
	c0-0.8-0.4-1.5-1.1-1.8l-15.2-7c0.3-3.3-2.1-6.2-5.4-6.5c-0.4,0-0.8,0-1.2,0c-3.3,0.3-5.7,3.3-5.3,6.6s3.3,5.7,6.6,5.3
	c1.4-0.1,2.7-0.8,3.7-1.8l14,6.5V120C27,115,7,91.8,7,64C7,32.6,32.6,7,64,7c31.4,0,57,25.6,57,57C121,94.3,97.2,119.2,67.3,120.9
	L67.3,120.9z"/>
</svg>
