<?xml version="1.0" encoding="utf-8"?>
<!-- Generator: Adobe Illustrator 22.0.1, SVG Export Plug-In . SVG Version: 6.00 Build 0)  -->
<svg version="1.1" id="Layer_1" xmlns="http://www.w3.org/2000/svg" xmlns:xlink="http://www.w3.org/1999/xlink" x="0px" y="0px"
	 viewBox="0 0 128 128" style="enable-background:new 0 0 128 128;" xml:space="preserve">
<style type="text/css">
	.st0{fill:#222C37;}
</style>
<g>
	<path class="st0" d="M82.8,64l22.2-38.4L115.8,64l-10.7,38.4L82.8,64L82.8,64z M72,70.2l22.2,38.4l-38.7-9.9l-28-28.5H72L72,70.2z
		 M94.2,19.4L72,57.8H27.5l28-28.5L94.2,19.4L94.2,19.4z M126,50.9L112.4,0.5L61.8,14l-7.5,13.2l-15.2-0.1L2,64l37.1,36.9h0
		l15.2-0.1l7.5,13.2l50.6,13.5L126,77.1L118.3,64L126,50.9L126,50.9z"/>
</g>
</svg>
